<svg width="123" height="79" viewBox="0 0 123 79" fill="none" xmlns="http://www.w3.org/2000/svg">
<path d="M71.6233 15.5352L45.964 49.3442C44.4578 51.3345 41.4723 51.3345 39.9661 49.3442L27.7281 33.1256C26.2219 31.1352 23.2364 31.1352 21.7302 33.1256L1.3964 59.9414C-0.486361 62.4159 1.28881 65.9663 4.38192 65.9663H108.068C111.161 65.9663 112.936 62.4159 111.054 59.9414L77.5943 15.589C76.0881 13.5987 73.1026 13.5987 71.5964 15.589L71.6233 15.5352Z" fill="url(#paint0_linear_753_143)"/>
<path d="M31.3051 22.2324C37.1875 22.2324 41.9561 17.4638 41.9561 11.5814C41.9561 5.69899 37.1875 0.930359 31.3051 0.930359C25.4227 0.930359 20.6541 5.69899 20.6541 11.5814C20.6541 17.4638 25.4227 22.2324 31.3051 22.2324Z" fill="url(#paint1_linear_753_143)"/>
<path d="M106.238 46.2938C114.875 46.2938 121.876 53.295 121.876 61.9315C121.876 70.5681 114.875 77.5692 106.238 77.5692C97.6016 77.569 90.6003 70.568 90.6003 61.9315C90.6005 53.2951 97.6016 46.2939 106.238 46.2938Z" fill="url(#paint2_linear_753_143)" stroke="#F1F6FD"/>
<path d="M106.265 53.5828C106.608 53.5828 106.895 53.8702 106.895 54.2127V61.3026H113.985C114.327 61.3026 114.615 61.5892 114.615 61.9315C114.615 62.2739 114.328 62.5613 113.985 62.5613H106.895V69.6512C106.895 69.9936 106.608 70.2811 106.265 70.2811C105.923 70.2809 105.637 69.9935 105.637 69.6512V62.5613H98.5467C98.2042 62.5613 97.9168 62.2739 97.9168 61.9315C97.917 61.5891 98.2043 61.3026 98.5467 61.3026H105.637V54.2127C105.637 53.8703 105.923 53.583 106.265 53.5828Z" fill="white" stroke="#F1F6FD"/>
<defs>
<linearGradient id="paint0_linear_753_143" x1="181.776" y1="-4.30924" x2="102.227" y2="138.327" gradientUnits="userSpaceOnUse">
<stop stop-color="#2BD1FF"/>
<stop offset="0.509615" stop-color="#34B8FF"/>
<stop offset="1" stop-color="#229CFD"/>
</linearGradient>
<linearGradient id="paint1_linear_753_143" x1="55.3558" y1="-6.62844" x2="17.5618" y2="24.9811" gradientUnits="userSpaceOnUse">
<stop stop-color="#2BD1FF"/>
<stop offset="0.509615" stop-color="#34B8FF"/>
<stop offset="1" stop-color="#229CFD"/>
</linearGradient>
<linearGradient id="paint2_linear_753_143" x1="142.679" y1="34.341" x2="85.4151" y2="82.2343" gradientUnits="userSpaceOnUse">
<stop stop-color="#2BD1FF"/>
<stop offset="0.509615" stop-color="#34B8FF"/>
<stop offset="1" stop-color="#229CFD"/>
</linearGradient>
</defs>
</svg>
